<svg width="13" height="16" viewBox="0 0 13 16" fill="none" xmlns="http://www.w3.org/2000/svg">
<path d="M6.5 0.171875C7.15054 0.171851 7.77579 0.423838 8.24451 0.874943C8.71324 1.32605 8.98898 1.94119 9.01387 2.59125L9.01562 2.6875H12.1875C12.3274 2.68795 12.4618 2.74199 12.563 2.83849C12.6643 2.935 12.7247 3.06663 12.7319 3.20633C12.7391 3.34603 12.6924 3.48316 12.6016 3.58953C12.5107 3.6959 12.3826 3.76341 12.2435 3.77819L12.1875 3.78125H11.7102L10.9651 13.6556C10.9298 14.1232 10.7192 14.5602 10.3753 14.879C10.0315 15.1978 9.57991 15.375 9.111 15.375H3.889C3.42009 15.375 2.9685 15.1978 2.62467 14.879C2.28085 14.5602 2.07018 14.1232 2.03487 13.6556L1.28937 3.78125H0.8125C0.677112 3.78131 0.546514 3.73115 0.445977 3.64047C0.345441 3.5498 0.282114 3.42505 0.26825 3.29037L0.265625 3.23437C0.265625 2.95131 0.480875 2.71812 0.7565 2.69056L0.8125 2.6875H3.98437C3.98437 2.02031 4.24941 1.38046 4.72118 0.908685C5.19296 0.436913 5.83281 0.171875 6.5 0.171875ZM10.6134 3.78125H2.38662L3.126 13.5734C3.14056 13.7658 3.22725 13.9456 3.36872 14.0769C3.51019 14.2082 3.69602 14.2811 3.889 14.2812H9.111C9.30406 14.2812 9.48999 14.2083 9.63156 14.077C9.77312 13.9458 9.85987 13.7659 9.87444 13.5734L10.6138 3.78125H10.6134ZM7.92187 6.07812C8.20494 6.07812 8.43812 6.29337 8.46612 6.569L8.46875 6.625V11.4375C8.4694 11.5781 8.41586 11.7136 8.31924 11.8158C8.22262 11.918 8.09035 11.979 7.94991 11.9862C7.80947 11.9934 7.67165 11.9462 7.56507 11.8545C7.4585 11.7627 7.39137 11.6335 7.37762 11.4935L7.375 11.4375V6.625C7.375 6.32312 7.62 6.07812 7.92187 6.07812ZM5.07812 6.07812C5.36119 6.07812 5.59437 6.29337 5.62237 6.569L5.625 6.625V11.4375C5.62565 11.5781 5.57211 11.7136 5.47549 11.8158C5.37887 11.918 5.2466 11.979 5.10616 11.9862C4.96572 11.9934 4.8279 11.9462 4.72132 11.8545C4.61475 11.7627 4.54762 11.6335 4.53387 11.4935L4.53125 11.4375V6.625C4.53125 6.32312 4.77625 6.07812 5.07812 6.07812ZM6.5 1.26562C6.13681 1.2656 5.78739 1.40455 5.5234 1.65398C5.25941 1.90341 5.10087 2.2444 5.08031 2.607L5.07812 2.6875H7.92187C7.92187 2.3104 7.77207 1.94874 7.50542 1.68208C7.23876 1.41543 6.8771 1.26562 6.5 1.26562Z" fill="white"/>
</svg>
