<svg width="22" height="22" viewBox="0 0 22 22" fill="none" xmlns="http://www.w3.org/2000/svg">
<path d="M21.58 4.54661L17.6667 0.613273C17.4081 0.355983 17.0582 0.211548 16.6934 0.211548C16.3286 0.211548 15.9786 0.355983 15.72 0.613273L1.8467 14.4666L0.580038 19.9333C0.536342 20.1331 0.53784 20.3402 0.584422 20.5394C0.631004 20.7386 0.721494 20.9248 0.84928 21.0845C0.977067 21.2443 1.13892 21.3734 1.32302 21.4626C1.50712 21.5518 1.70882 21.5987 1.91337 21.5999C2.00868 21.6096 2.10472 21.6096 2.20004 21.5999L7.7267 20.3333L21.58 6.49327C21.8373 6.23468 21.9818 5.88473 21.9818 5.51994C21.9818 5.15515 21.8373 4.8052 21.58 4.54661ZM7.06004 19.1333L1.88004 20.2199L3.06004 15.1399L13.44 4.79994L17.44 8.79994L7.06004 19.1333ZM18.3334 7.83327L14.3334 3.83327L16.6534 1.52661L20.5867 5.52661L18.3334 7.83327Z" fill="#E58181"/>
</svg>
